# xmcd
#
# Track frame offsets:
#	150
#	15873
#	34695
#	50182
#	64164
#	82907
#	104200
#	126547
#	152573
#	166191
#	183831
#	203362
#	222458
#	251411
#	268368
#	286065
#	303760
#
# Disc length: 4310 seconds
#
# Revision: 0
# Processed by: cddbd v1.5.2PL0 Copyright (c) Steve Scherf et al.
# Submitted via: EasyCDDAExtractor 15.2.1.1
#
DISCID=e910d411
DTITLE=Various Artist - Diva 6 Disc 5
DYEAR=2011
DGENRE=
TTITLE0=劉美君 - 嬉戲號客機
TTITLE1=劉美君 - 被你縱壞
TTITLE2=關淑怡 - 一首獨唱的歌
TTITLE3=陳慧嫻 - 夜了點
TTITLE4=關淑怡 - 假的戀愛
TTITLE5=關淑怡 - 無盡的愛
TTITLE6=葉倩文 - 完全是你
TTITLE7=葉倩文 - 女人的弱點
TTITLE8=關淑怡 - 繾綣星光下
TTITLE9=彭羚 - 讓我跟你走
TTITLE10=彭羚 - 如夢初醒
TTITLE11=彭羚 - 等得太久
TTITLE12=陳慧嫻 - 戀戀風塵
TTITLE13=陳慧嫻 - 今天夜裏總下雨
TTITLE14=彭羚 - 完全因你
TTITLE15=關淑怡 - 人生可有知己
TTITLE16=陳慧嫻 - 我寂寞
EXTD=
EXTT0=
EXTT1=
EXTT2=
EXTT3=
EXTT4=
EXTT5=
EXTT6=
EXTT7=
EXTT8=
EXTT9=
EXTT10=
EXTT11=
EXTT12=
EXTT13=
EXTT14=
EXTT15=
EXTT16=
PLAYORDER=
